<svg xmlns="http://www.w3.org/2000/svg" version="1.1" xmlns:xlink="http://www.w3.org/1999/xlink" xmlns:svgjs="http://svgjs.dev/svgjs" width="1000" height="1000" viewBox="0 0 1000 1000"><rect width="1000" height="1000" fill="#ffffff"></rect><g transform="matrix(0.7,0,0,0.7,149.57575757575756,282.1265587044535)"><svg viewBox="0 0 396 247" data-background-color="#ffffff" preserveAspectRatio="xMidYMid meet" height="623" width="1000" xmlns="http://www.w3.org/2000/svg" xmlns:xlink="http://www.w3.org/1999/xlink"><g id="tight-bounds" transform="matrix(1,0,0,1,0.2400000000000091,-0.09999999999999432)"><svg viewBox="0 0 395.52 247.2" height="247.2" width="395.52"><g><svg></svg></g><g><svg viewBox="0 0 395.52 247.2" height="247.2" width="395.52"><g transform="matrix(1,0,0,1,39.55199999999999,100.7866398390342)"><svg viewBox="0 0 316.416 45.62672032193159" height="45.62672032193159" width="316.416"><g><svg viewBox="0 0 316.416 45.62672032193159" height="45.62672032193159" width="316.416"><g><svg viewBox="0 0 316.416 45.62672032193159" height="45.62672032193159" width="316.416"><g><svg viewBox="0 0 316.416 45.62672032193159" height="45.62672032193159" width="316.416"><g><svg viewBox="0 0 316.416 45.62672032193159" height="45.62672032193159" width="316.416"><g><svg viewBox="0 0 316.416 45.62672032193159" height="45.62672032193159" width="316.416"><g transform="matrix(1,0,0,1,0,0)"><svg width="316.416" viewBox="3.86 -36.25 254.78999999999996 36.74" height="45.62672032193159" data-palette-color="#76abe1"><path d="M34.45-35.69L34.45 0 24.76 0 24.76-14.55 13.55-14.55 13.55 0 3.86 0 3.86-35.69 13.55-35.69 13.55-22.46 24.76-22.46 24.76-35.69 34.45-35.69ZM48.8-35.69L54.9-22.46 61.06-35.69 71.51-35.69 59.76-13.94 59.76 0 50.05 0 50.05-13.65 38.3-35.69 48.8-35.69ZM108.76-17.9L108.76-17.9Q108.76-8.89 104.34-4.2 99.92 0.49 91.4 0.49L91.4 0.49Q83 0.49 78.52-4.22 74.04-8.94 74.04-17.94L74.04-17.94Q74.04-26.86 78.5-31.56 82.95-36.25 91.45-36.25L91.45-36.25Q99.97-36.25 104.37-31.59 108.76-26.93 108.76-17.9ZM84.2-17.9L84.2-17.9Q84.2-7.54 91.4-7.54L91.4-7.54Q95.06-7.54 96.83-10.06 98.6-12.57 98.6-17.9L98.6-17.9Q98.6-23.24 96.81-25.79 95.01-28.34 91.45-28.34L91.45-28.34Q84.2-28.34 84.2-17.9ZM115.2 0L115.2-35.69 127.65-35.69Q134.93-35.69 138.46-33.53 141.98-31.37 141.98-26.81L141.98-26.81Q141.98-23.8 140.45-21.68 138.91-19.56 136.39-18.95L136.39-18.95 136.39-18.7Q139.71-17.82 141.2-15.77 142.69-13.72 142.69-10.45L142.69-10.45Q142.69-5.59 139.04-2.8 135.39 0 129.09 0L129.09 0 115.2 0ZM124.85-28.39L124.85-22 127.75-22Q129.83-22 130.96-22.85 132.1-23.71 132.1-25.39L132.1-25.39Q132.1-28.39 127.56-28.39L127.56-28.39 124.85-28.39ZM128.04-14.94L124.85-14.94 124.85-7.45 128.24-7.45Q132.76-7.45 132.76-11.25L132.76-11.25Q132.76-13.04 131.55-13.99 130.34-14.94 128.04-14.94L128.04-14.94ZM148.89 0L148.89-35.69 161.34-35.69Q168.62-35.69 172.15-33.53 175.67-31.37 175.67-26.81L175.67-26.81Q175.67-23.8 174.14-21.68 172.6-19.56 170.08-18.95L170.08-18.95 170.08-18.7Q173.4-17.82 174.89-15.77 176.38-13.72 176.38-10.45L176.38-10.45Q176.38-5.59 172.73-2.8 169.08 0 162.78 0L162.78 0 148.89 0ZM158.53-28.39L158.53-22 161.44-22Q163.52-22 164.65-22.85 165.79-23.71 165.79-25.39L165.79-25.39Q165.79-28.39 161.24-28.39L161.24-28.39 158.53-28.39ZM161.73-14.94L158.53-14.94 158.53-7.45 161.93-7.45Q166.45-7.45 166.45-11.25L166.45-11.25Q166.45-13.04 165.24-13.99 164.03-14.94 161.73-14.94L161.73-14.94ZM203.77-7.86L203.77 0 182.58 0 182.58-35.69 203.77-35.69 203.77-27.95 192.22-27.95 192.22-22.34 202.92-22.34 202.92-14.6 192.22-14.6 192.22-7.86 203.77-7.86ZM231.21-7.86L231.21 0 210.02 0 210.02-35.69 231.21-35.69 231.21-27.95 219.66-27.95 219.66-22.34 230.36-22.34 230.36-14.6 219.66-14.6 219.66-7.86 231.21-7.86ZM258.65-7.86L258.65 0 237.46 0 237.46-35.69 258.65-35.69 258.65-27.95 247.1-27.95 247.1-22.34 257.8-22.34 257.8-14.6 247.1-14.6 247.1-7.86 258.65-7.86Z" opacity="1" transform="matrix(1,0,0,1,0,0)" fill="#76abe1" class="undefined-text-0" data-fill-palette-color="primary" id="text-0"></path></svg></g></svg></g></svg></g></svg></g><g></g></svg></g></svg></g></svg></g><g mask="url(#308716eb-6bd7-4f32-8e5d-08e403d90558)"><g transform="matrix(2.9547364157751552, 0, 0, 2.9547364157751552, 79.35263068361176, 1)"><svg xmlns="http://www.w3.org/2000/svg" xmlns:xlink="http://www.w3.org/1999/xlink" version="1.1" x="0" y="0" viewBox="10.152499407921074 8.714594367574609 80.14750059207894 82.9854056324254" style="enable-background:new 0 0 100 100;" xml:space="preserve" height="82.9854056324254" width="80.14750059207894" class="icon-none" data-fill-palette-color="accent" id="none"><path d="M69.4 91.7H44.7c-7.6 0-14.6-4.1-18.3-10.8L12.8 56.3c-2.8-5-3.4-10.8-1.7-16.3 1.7-5.5 5.4-9.9 10.6-12.5l33-16.6c8.2-4.1 18.3-2.3 24.6 4.3l5.3 5.7c3.7 3.9 5.7 9 5.7 14.3v35.5C90.3 82.3 80.9 91.7 69.4 91.7zM64 11.7c-2.7 0-5.5 0.6-8 1.9L23 30.2c-4.4 2.2-7.6 6-9 10.7s-0.9 9.6 1.4 13.9l13.6 24.6c3.1 5.7 9.1 9.2 15.6 9.2h24.7c9.9 0 17.9-8 17.9-17.9V35.3c0-4.6-1.7-8.9-4.9-12.2l-5.3-5.7C73.6 13.7 68.8 11.7 64 11.7z" fill="#76abe1" data-fill-palette-color="accent"></path></svg></g></g></svg></g><defs><mask id="308716eb-6bd7-4f32-8e5d-08e403d90558"><rect width="640" height="400" fill="white"></rect><rect width="348.05760000000004" height="67.16946757537224" fill="black" x="145.97119999999998" y="166.4152662123139" id="transform-me" transform="matrix(1,0,0,1,-122.24000000000001,-76.4)"></rect></mask></defs></svg><rect width="395.52" height="247.2" fill="none" stroke="none" visibility="hidden"></rect></g></svg></g></svg>